<svg width="144" height="144" viewBox="0 0 144 144" fill="none" xmlns="http://www.w3.org/2000/svg">
<g clip-path="url(#clip0_19_138)">
<path d="M99.2625 40H44.725C42.1125 40 40 42.0625 40 44.6125V99.375C40 101.925 42.1125 104 44.725 104H99.2625C101.875 104 104 101.925 104 99.3875V44.6125C104 42.0625 101.875 40 99.2625 40ZM58.9875 94.5375H49.4875V63.9875H58.9875V94.5375ZM54.2375 59.825C51.1875 59.825 48.725 57.3625 48.725 54.325C48.725 51.2875 51.1875 48.825 54.2375 48.825C57.275 48.825 59.7375 51.2875 59.7375 54.325C59.7375 57.35 57.275 59.825 54.2375 59.825ZM94.5375 94.5375H85.05V79.6875C85.05 76.15 84.9875 71.5875 80.1125 71.5875C75.175 71.5875 74.425 75.45 74.425 79.4375V94.5375H64.95V63.9875H74.05V68.1625H74.175C75.4375 65.7625 78.5375 63.225 83.15 63.225C92.7625 63.225 94.5375 69.55 94.5375 77.775V94.5375V94.5375Z" fill="#202322"/>
</g>
<defs>
<clipPath id="clip0_19_138">
<rect width="64" height="64" fill="white" transform="translate(40 40)"/>
</clipPath>
</defs>
</svg>
